<?xml version="1.0" encoding="UTF-8"?>
<svg width="128" height="128" viewBox="0 0 128 128" fill="none" xmlns="http://www.w3.org/2000/svg">
  <rect width="128" height="128" rx="24" fill="#4285F4"/>
  <path d="M76 52H52C48.7 52 46 54.7 46 58V70C46 73.3 48.7 76 52 76H76C79.3 76 82 73.3 82 70V58C82 54.7 79.3 52 76 52ZM77.5 70C77.5 70.84 76.84 71.5 76 71.5H52C51.16 71.5 50.5 70.84 50.5 70V58C50.5 57.16 51.16 56.5 52 56.5H76C76.84 56.5 77.5 57.16 77.5 58V70Z" fill="white"/>
  <path d="M64 48V80" stroke="white" stroke-width="4" stroke-linecap="round"/>
  <path d="M48 64H80" stroke="white" stroke-width="4" stroke-linecap="round"/>
</svg> 