<?xml version="1.0" encoding="UTF-8"?>
<svg width="48" height="48" viewBox="0 0 48 48" fill="none" xmlns="http://www.w3.org/2000/svg">
  <rect width="48" height="48" rx="8" fill="#4285F4"/>
  <path d="M28 20H20C18.9 20 18 20.9 18 22V26C18 27.1 18.9 28 20 28H28C29.1 28 30 27.1 30 26V22C30 20.9 29.1 20 28 20ZM28.5 26C28.5 26.28 28.28 26.5 28 26.5H20C19.72 26.5 19.5 26.28 19.5 26V22C19.5 21.72 19.72 21.5 20 21.5H28C28.28 21.5 28.5 21.72 28.5 22V26Z" fill="white"/>
  <path d="M24 19V29" stroke="white" stroke-width="1.5" stroke-linecap="round"/>
  <path d="M19 24H29" stroke="white" stroke-width="1.5" stroke-linecap="round"/>
</svg> 